<svg width="89" height="38" viewBox="0 0 89 38" fill="none" xmlns="http://www.w3.org/2000/svg">
<path d="M23.8805 12.9017L23.8797 12.9034C23.2464 14.1562 22.3727 15.2715 21.3086 16.185L19.1836 18.0093L19.6726 15.2517C19.8102 14.4753 19.8798 13.6882 19.8805 12.8996V12.8993C19.8835 10.4996 19.2528 8.14224 18.0529 6.06717C16.8532 3.99238 15.1274 2.2741 13.0515 1.08688C12.9535 1.03104 12.8432 1.00124 12.7309 1.00004C12.6185 0.998831 12.5075 1.02631 12.4083 1.08012C12.309 1.13394 12.2246 1.21245 12.1632 1.30859C12.1022 1.40426 12.0661 1.51414 12.0586 1.62801C12.0586 1.62859 12.0585 1.62918 12.0585 1.62976L11.0605 1.56653L23.8805 12.9017ZM23.8805 12.9017C23.9219 12.8194 23.9796 12.7468 24.0497 12.6882C24.1199 12.6295 24.201 12.5862 24.2881 12.5605C24.3752 12.5348 24.4665 12.5274 24.5565 12.5386C24.6463 12.5497 24.733 12.5792 24.8113 12.6254C24.8793 12.6657 24.9425 12.7135 25 12.768C26.6663 14.4743 27.8716 16.5795 28.5015 18.8845C29.1328 21.1945 29.165 23.6282 28.5952 25.9543C28.0254 28.2804 26.8726 30.4212 25.2465 32.1736C23.6205 33.926 21.5754 35.2317 19.3057 35.967L19.3038 35.9676C19.1487 36.0182 18.9806 36.0093 18.8315 35.9424L18.8278 35.9408C15.9543 34.6655 13.5908 32.4572 12.118 29.6701L10.6044 26.806L10.2402 30.0249C10.0626 31.5947 10.1791 33.184 10.5839 34.7108L10.5903 34.7348M23.8805 12.9017L10.5903 34.7348M10.5903 34.7348L10.5978 34.7585M10.5903 34.7348L10.5978 34.7585M10.5978 34.7585C10.6207 34.8302 10.6328 34.9049 10.6338 34.9801L10.5978 34.7585ZM12.973 4.37797C12.2581 7.19206 10.6894 9.71267 8.48506 11.5914C8.47561 11.5987 8.46662 11.6058 8.45938 11.6116C8.43974 11.6272 8.41557 11.6468 8.39042 11.6673C8.33936 11.7089 8.2742 11.7625 8.21108 11.8146L8.03802 11.9577L7.98143 12.0047L7.96555 12.0178L7.96133 12.0213L7.96023 12.0223L7.95994 12.0225L7.95987 12.0226L7.95985 12.0226L8.59881 12.7918L7.95983 12.0226L7.95691 12.025C7.94917 12.0315 7.94103 12.0375 7.93256 12.0429L7.92542 12.0475L7.91835 12.0523C6.83473 12.7761 5.87668 13.673 5.08213 14.7073C4.04239 16.0185 3.27199 17.5233 2.8153 19.1348C2.35784 20.7489 2.22419 22.438 2.42205 24.1043C2.61992 25.7706 3.14538 27.381 3.96811 28.8422C4.79085 30.3035 5.89455 31.5865 7.2154 32.6169L8.8832 33.9179L8.83016 31.8034C8.7654 29.221 9.41434 26.6713 10.7048 24.4369L10.7056 24.4354C10.7646 24.3329 10.8492 24.2483 10.9505 24.1896C11.0518 24.131 11.1664 24.1003 11.2829 24.1005L11.2877 24.1004C11.3289 24.1003 11.37 24.1042 11.4104 24.112C11.5459 24.1387 11.6703 24.2072 11.7659 24.3088C11.8611 24.4098 11.9231 24.5385 11.9427 24.6772C12.0178 25.2545 12.1245 25.8273 12.2622 26.393L12.265 26.4043L12.268 26.4155C12.7275 28.129 13.5413 29.7264 14.6567 31.104C15.7721 32.4815 17.164 33.6083 18.7423 34.4109L19.14 34.6131L19.5562 34.4522C21.3353 33.7642 22.9364 32.6822 24.2403 31.2871C25.5442 29.8921 26.5173 28.2199 27.0873 26.3954C27.6574 24.5709 27.8098 22.6409 27.5332 20.7492C27.2565 18.8575 26.558 17.0526 25.4895 15.4691L24.7146 14.3207L23.8687 15.4178C22.356 17.3794 20.2813 18.8285 17.9242 19.5705C17.7992 19.6095 17.6657 19.6104 17.5401 19.5734L17.2567 20.5324L17.5401 19.5733C17.4142 19.5362 17.3017 19.4622 17.2168 19.3603C17.132 19.2583 17.0789 19.133 17.0646 19C17.0505 18.8675 17.0756 18.7339 17.1367 18.6161C18.3918 16.2267 18.8258 13.4887 18.3716 10.8268C17.9173 8.16418 16.5996 5.72601 14.6224 3.89117L13.3877 2.74534L12.973 4.37797Z" fill="#253D30" stroke="#253D30" stroke-width="2"/>
<path d="M40.425 31L33.5 13.425H37.175L42.525 27.65H41.1L46.5 13.425H50.125L43.125 31H40.425ZM52.427 31V13.425H55.827V31H52.427ZM64.192 31.25C62.7753 31.25 61.5587 31.0083 60.542 30.525C59.542 30.0417 58.6337 29.3167 57.817 28.35L60.067 26.1C60.5837 26.7833 61.1837 27.3167 61.867 27.7C62.5503 28.0667 63.3837 28.25 64.367 28.25C65.2503 28.25 65.9503 28.075 66.467 27.725C67.0003 27.375 67.267 26.8917 67.267 26.275C67.267 25.7417 67.117 25.3083 66.817 24.975C66.517 24.6417 66.117 24.3583 65.617 24.125C65.1337 23.8917 64.592 23.6833 63.992 23.5C63.4087 23.3 62.817 23.075 62.217 22.825C61.6337 22.575 61.092 22.2667 60.592 21.9C60.1087 21.5167 59.717 21.0333 59.417 20.45C59.117 19.85 58.967 19.1 58.967 18.2C58.967 17.1333 59.2253 16.225 59.742 15.475C60.2587 14.725 60.967 14.15 61.867 13.75C62.767 13.35 63.7837 13.15 64.917 13.15C66.117 13.15 67.2003 13.375 68.167 13.825C69.1337 14.275 69.9253 14.8583 70.542 15.575L68.292 17.825C67.7753 17.2583 67.242 16.8417 66.692 16.575C66.1587 16.3083 65.5503 16.175 64.867 16.175C64.0837 16.175 63.467 16.325 63.017 16.625C62.567 16.925 62.342 17.3583 62.342 17.925C62.342 18.4083 62.492 18.8 62.792 19.1C63.092 19.4 63.4837 19.6583 63.967 19.875C64.467 20.0917 65.0087 20.3 65.592 20.5C66.192 20.7 66.7837 20.925 67.367 21.175C67.967 21.425 68.5087 21.75 68.992 22.15C69.492 22.55 69.892 23.0667 70.192 23.7C70.492 24.3167 70.642 25.0833 70.642 26C70.642 27.6333 70.067 28.9167 68.917 29.85C67.767 30.7833 66.192 31.25 64.192 31.25ZM71.4883 31L78.5633 13.425H81.3383L88.3883 31H84.7633L79.3133 16.575H80.5633L75.0383 31H71.4883ZM75.2383 27.725V24.875H84.6883V27.725H75.2383Z" fill="#253D30"/>
</svg>
